{"title":"Masters (2012) Malayalam Movie DVDRip x264 AAC - Exclusive","uid":7427578,"size":783450755,"categoryP":"video","categoryS":"movies","magnet":"?xt=urn:btih:cec5595e8b2b7b3ea5fec97e5ea7293cac47a55a&amp;dn=Masters+%282012%29+Malayalam+Movie+DVDRip+x264+AAC+-+Exclusive&amp;tr=udp%3A%2F%2Ftracker.openbittorrent.com%3A80&amp;tr=udp%3A%2F%2Fopen.demonii.com%3A1337&amp;tr=udp%3A%2F%2Ftracker.coppersurfer.tk%3A6969&amp;tr=udp%3A%2F%2Fexodus.desync.com%3A6969","seeders":0,"leechers":1,"uploader":"tykoon123","files":-1,"time":1341849369,"description":"Poster: &lt;a href=&quot;\nhttp://imgh.us/Masters29546.jpg&quot; rel=&quot;nofollow&quot; target=&quot;_NEW&quot;&gt;\nhttp://imgh.us/Masters29546.jpg&lt;/a&gt;\n\n\nInfo:\n\nFormat : Matroska\nFormat version : Version 2\nFile size : 747 MiB\nDuration : 2h 24mn\nOverall bit rate : 725 Kbps\nEncoded date : UTC 2012-07-08 13:37:37\nWriting application : mkvmerge v5.6.0 ('Kenya Kane') built on May 27 2012 16:44:04\nWriting library : libebml v1.2.3 + libmatroska v1.3.0\n\nVideo\nID : 1\nFormat : AVC\nFormat/Info : Advanced Video Codec\nFormat profile : &lt;a class=&quot;__cf_email__&quot; href=&quot;/cdn-cgi/l/email-protection&quot; data-cfemail=&quot;0840616f6048443a2639&quot;&gt;[email&amp;#160;protected]&lt;/a&gt;&lt;script cf-hash='f9e31' type=&quot;text/javascript&quot;&gt;\n/* &lt;![CDATA[ */!function(){try{var t=&quot;currentScript&quot;in document?document.currentScript:function(){for(var t=document.getElementsByTagName(&quot;script&quot;),e=t.length;e--;)if(t[e].getAttribute(&quot;cf-hash&quot;))return t[e]}();if(t&amp;&amp;t.previousSibling){var e,r,n,i,c=t.previousSibling,a=c.getAttribute(&quot;data-cfemail&quot;);if(a){for(e=&quot;&quot;,r=parseInt(a.substr(0,2),16),n=2;a.length-n;n+=2)i=parseInt(a.substr(n,2),16)^r,e+=String.fromCharCode(i);e=document.createTextNode(e),c.parentNode.replaceChild(e,c)}}}catch(u){}}();/* ]]&gt; */&lt;/script&gt;\nFormat settings, CABAC : Yes\nFormat settings, ReFrames : 4 frames\nCodec ID : V_MPEG4/ISO/AVC\nDuration : 2h 24mn\nBit rate : 659 Kbps\nWidth : 672 pixels\nHeight : 288 pixels\nDisplay aspect ratio : 2.35:1\nFrame rate : 23.976 fps\nColor space : YUV\nChroma subsampling : 4:2:0\nBit depth : 8 bits\nScan type : Progressive\nBits/(Pixel*Frame) : 0.142\nStream size : 666 MiB (89%)\nWriting library : x264 core 125 r2200 999b753\nDefault : Yes\nForced : No\n\nAudio\nID : 2\nFormat : AC-3\nFormat/Info : Audio Coding 3\nMode extension : CM (complete main)\nFormat settings, Endianness : Big\nCodec ID : A_AC3\nDuration : 2h 24mn\nBit rate mode : Constant\nBit rate : 64.0 Kbps\nChannel(s) : 2 channels\nChannel positions : Front: L R\nSampling rate : 48.0 KHz\nBit depth : 16 bits\nCompression mode : Lossy\nStream size : 66.0 MiB (9%)\nDefault : Yes\nForced : No\n\nText\nID : 3\nFormat : UTF-8\nCodec ID : S_TEXT/UTF8\nCodec ID/Info : UTF-8 Plain Text\nDefault : Yes\nForced : No\n\nSCREENS: &lt;a href=&quot;\nhttp://imgh.us/5aY9hvOyNc.png&quot; rel=&quot;nofollow&quot; target=&quot;_NEW&quot;&gt;\nhttp://imgh.us/5aY9hvOyNc.png&lt;/a&gt; &lt;a href=&quot;\nhttp://imgh.us/XjnMvechrR.png&quot; rel=&quot;nofollow&quot; target=&quot;_NEW&quot;&gt;\nhttp://imgh.us/XjnMvechrR.png&lt;/a&gt; &lt;a href=&quot;\nhttp://imgh.us/2GKsawO7Zq.png&quot; rel=&quot;nofollow&quot; target=&quot;_NEW&quot;&gt;\nhttp://imgh.us/2GKsawO7Zq.png&lt;/a&gt; &lt;a href=&quot;\nhttp://imgh.us/wsZbAnVYxt.png&quot; rel=&quot;nofollow&quot; target=&quot;_NEW&quot;&gt;\nhttp://imgh.us/wsZbAnVYxt.png&lt;/a&gt;","torrent":{"xt":"urn:btih:cec5595e8b2b7b3ea5fec97e5ea7293cac47a55a","amp;dn":"Masters+%282012%29+Malayalam+Movie+DVDRip+x264+AAC+-+Exclusive","amp;tr":["udp%3A%2F%2Ftracker.openbittorrent.com%3A80","udp%3A%2F%2Fopen.demonii.com%3A1337","udp%3A%2F%2Ftracker.coppersurfer.tk%3A6969","udp%3A%2F%2Fexodus.desync.com%3A6969"],"infoHash":"cec5595e8b2b7b3ea5fec97e5ea7293cac47a55a","infoHashBuffer":{"type":"Buffer","data":[206,197,89,94,139,43,123,62,165,254,201,126,94,167,41,60,172,71,165,90]},"announce":[],"urlList":[]}}